<svg width="100" height="100" viewBox="0 0 100 100" fill="none" xmlns="http://www.w3.org/2000/svg">
<path d="M91.6668 47.9166V64.5833C91.6668 79.1667 83.3335 85.4167 70.8335 85.4167H29.1668C16.6668 85.4167 8.3335 79.1667 8.3335 64.5833V35.4166C8.3335 20.8333 16.6668 14.5833 29.1668 14.5833H50.0002" stroke="#359509" stroke-width="1.5" stroke-miterlimit="10" stroke-linecap="round" stroke-linejoin="round"/>
<path d="M29.1665 37.5L42.2082 47.9167C46.4999 51.3333 53.5415 51.3333 57.8332 47.9167" stroke="#359509" stroke-width="1.5" stroke-miterlimit="10" stroke-linecap="round" stroke-linejoin="round"/>
<path d="M81.1669 11.75L82.3336 14.125C82.9169 15.2916 84.3752 16.375 85.6669 16.625L87.2502 16.875C92.0002 17.6667 93.1252 21.1667 89.7085 24.625L88.2502 26.0833C87.2919 27.0833 86.7503 29 87.0419 30.3333L87.2502 31.2083C88.5419 36.9583 85.5002 39.1666 80.5002 36.1666L79.4169 35.5416C78.1252 34.7916 76.0419 34.7916 74.7502 35.5416L73.6669 36.1666C68.6252 39.2083 65.5835 36.9583 66.9169 31.2083L67.1252 30.3333C67.4168 29 66.8752 27.0833 65.9169 26.0833L64.4586 24.625C61.0419 21.1667 62.1669 17.6667 66.9169 16.875L68.5002 16.625C69.7502 16.4167 71.2502 15.2916 71.8335 14.125L73.0002 11.75C75.2502 7.20833 78.9169 7.20833 81.1669 11.75Z" stroke="#359509" stroke-width="1.5" stroke-linecap="round" stroke-linejoin="round"/>
</svg>
